<svg width="120" height="120" viewBox="0 0 120 120" fill="none" xmlns="http://www.w3.org/2000/svg">
  <path d="M30 45L25 95C24.5 100 27 105 32 105H88C93 105 95.5 100 95 95L90 45H30Z" fill="#2563EB"/>
  
  <path d="M42 45V35C42 25 48 20 60 20C72 20 78 25 78 35V45" stroke="#2563EB" stroke-width="6" stroke-linecap="round" fill="none"/>
  
  <rect x="20" y="40" width="80" height="10" rx="3" fill="#1E40AF"/>
  
  <path d="M48 65H70M48 65V85M48 75H65M48 85H70" stroke="white" stroke-width="5" stroke-linecap="round" stroke-linejoin="round"/>
  
  <circle cx="85" cy="30" r="3" fill="#FCD34D" />
  <circle cx="92" cy="38" r="2" fill="#FCD34D" />
  <circle cx="78" cy="35" r="2" fill="#FCD34D" />
</svg>